#!OML:ASF I:\Random Stuff\random\construction\7_22_03\Session 2\subj1.ASF
:FULLY-SPECIFIED
:DEGREES
491
root -1.88276 17.8231 0.496093 -162.886 78.4813 -169.888
lowerback 0.353616 1.53639 1.53033
upperback -2.49045 2.15298 1.42811
thorax -2.75325 1.07489 0.549354
lowerneck -18.0294 -10.2311 -8.57291
upperneck 33.9316 -14.2988 7.92622
head 16.5093 -5.60083 2.14896
rclavicle 3.01904e-015 5.96354e-015
rhumerus -28.6161 -7.71603 -78.0586
rradius 63.4743
rwrist -29.5281
rhand -37.2725 29.4513
rfingers 7.12502
rthumb -10.3375 -0.274575
lclavicle 3.01904e-015 5.96354e-015
lhumerus -37.8469 -6.72305 90.6104
lradius 32.2965
lwrist 38.0586
lhand -21.8909 61.3042
lfingers 7.12502
lthumb 4.51408 -91.2361
rfemur 2.0268 13.3996 21.2948
rtibia 1.59028e-015
rfoot -6.41646 -33.7251
rtoes 8.52772
lfemur -11.2527 -20.7843 -12.3912
ltibia 16.4203
lfoot -12.1588 12.0709
ltoes -28.5112
492
root -1.88217 17.8227 0.498759 -162.922 78.4865 -169.964
lowerback 0.185685 1.39782 1.44124
upperback -2.33323 1.95963 1.53592
thorax -2.50345 0.982647 0.721733
lowerneck -17.9237 -10.4225 -8.86746
upperneck 33.7154 -14.5653 8.12665
head 16.4617 -5.73714 2.22213
rclavicle 5.67282e-014 -2.78299e-015
rhumerus -29.2454 -7.97226 -77.5657
rradius 63.3108
rwrist -28.9013
rhand -37.6617 30.9362
rfingers 7.12502
rthumb -10.713 1.2293
lclavicle 5.67282e-014 -2.78299e-015
lhumerus -37.6298 -6.666 90.9922
lradius 32.9562
lwrist 37.761
lhand -21.6509 61.2964
lfingers 7.12502
lthumb 4.7459 -91.2233
rfemur 2.00596 13.4013 21.2768
rtibia -1.59028e-015
rfoot -6.51773 -33.6974
rtoes 8.59421
lfemur -11.295 -20.8256 -12.3816
ltibia 16.4313
lfoot -12.204 12.0913
ltoes -28.2864
493
root -1.8835 17.8215 0.503236 -162.952 78.5013 -170.042
lowerback 0.0718155 1.24513 1.33614
upperback -2.22481 1.74995 1.62537
thorax -2.33301 0.881591 0.881229
lowerneck -17.7296 -10.5848 -9.00067
upperneck 33.4851 -14.8092 8.23235
head 16.356 -5.8601 2.23707
rclavicle 1.38652e-014 -2.38542e-015
rhumerus -29.931 -8.15968 -77.1182
rradius 63.1903
rwrist -28.4703
rhand -37.9943 31.9489
rfingers 7.12502
rthumb -11.0337 2.25888
lclavicle 1.38652e-014 -2.38542e-015
lhumerus -37.5691 -6.76605 91.3679
lradius 33.7795
lwrist 37.751
lhand -21.7843 61.267
lfingers 7.12502
lthumb 4.61703 -91.1967
rfemur 1.96208 13.4123 21.2571
rtibia 3.18055e-015
rfoot -6.5735 -33.6823
rtoes 8.58712
lfemur -11.3542 -20.9964 -12.3593
ltibia 16.4466
lfoot -12.2285 12.2627
ltoes -28.3178
494
root -1.88695 17.8207 0.509817 -163.003 78.5374 -170.135
lowerback 0.0441952 1.08924 1.22528
upperback -2.1735 1.53934 1.68931
thorax -2.26794 0.779285 1.01437
lowerneck -17.4216 -10.7188 -9.09503
upperneck 33.2678 -15.0365 8.36654
head 16.2289 -5.96922 2.26827
rclavicle -1.92821e-014 -4.77083e-015
rhumerus -30.6557 -8.37951 -76.7122
rradius 63.0111
rwrist -28.2507
rhand -38.4126 33.5476
rfingers 7.12502
rthumb -11.4372 3.8796
lclavicle -1.92821e-014 -4.77083e-015
lhumerus -37.6389 -6.96499 91.678
lradius 34.6315
lwrist 37.7274
lhand -21.6193 61.0416
lfingers 7.12502
lthumb 4.77635 -90.9677
rfemur 1.90089 13.4435 21.2351
rtibia 7.95139e-015
rfoot -6.50562 -33.6681
rtoes 8.39869
lfemur -11.4224 -21.3804 -12.3211
ltibia 16.4771
lfoot -12.2648 12.6637
ltoes -28.6051
495
root -1.88992 17.8217 0.515309 -162.991 78.589 -170.141
lowerback 0.0583478 0.922697 1.14826
upperback -2.13079 1.31639 1.75618
thorax -2.23316 0.670018 1.13073
lowerneck -17.0817 -10.8191 -9.2927
upperneck 33.0188 -15.2344 8.65781
head 16.1077 -6.05966 2.39103
rclavicle -9.88954e-015 -4.77083e-015
rhumerus -31.364 -8.50301 -76.3182
rradius 62.8026
rwrist -28.2434
rhand -39.0722 35.2831
rfingers 7.12502
rthumb -12.0733 5.65138
lclavicle -9.88954e-015 -4.77083e-015
lhumerus -37.7036 -7.11483 91.9133
lradius 35.4398
lwrist 37.6284
lhand -21.2303 60.7728
lfingers 7.12502
lthumb 5.15199 -90.6902
rfemur 1.86403 13.4942 21.2333
rtibia 9.54166e-015
rfoot -6.4237 -33.6587
rtoes 8.32827
lfemur -11.4526 -21.6854 -12.2838
ltibia 16.5131
lfoot -12.3095 12.9691
ltoes -28.734
496
root -1.89086 17.8207 0.519381 -162.962 78.667 -170.094
lowerback 0.076385 0.772589 1.10977
upperback -2.06171 1.11448 1.808
thorax -2.17162 0.570102 1.20976
lowerneck -16.8076 -10.9579 -9.58948
upperneck 32.831 -15.4965 9.0495
head 16.0669 -6.16968 2.55637
rclavicle -1.45113e-014 -3.97569e-016
rhumerus -32.0198 -8.55544 -75.9416
rradius 62.5985
rwrist -28.4728
rhand -39.7056 36.4526
rfingers 7.12502
rthumb -12.684 6.85781
lclavicle -1.45113e-014 -3.97569e-016
lhumerus -37.6997 -7.18459 92.0389
lradius 36.1638
lwrist 37.3243
lhand -20.3781 60.1651
lfingers 7.12502
lthumb 5.97478 -90.0608
rfemur 1.8797 13.5719 21.2374
rtibia 6.36111e-015
rfoot -6.5478 -33.6336
rtoes 8.77499
lfemur -11.4186 -21.7825 -12.2838
ltibia 16.5463
lfoot -12.2714 13.0426
ltoes -28.8078
497
root -1.89147 17.819 0.524185 -162.967 78.7394 -170.112
lowerback 0.0485606 0.615716 1.05671
upperback -1.99369 0.90241 1.85812
thorax -2.08481 0.465365 1.29582
lowerneck -16.6245 -11.1504 -9.82003
upperneck 32.7907 -15.8039 9.26186
head 16.0989 -6.30552 2.62284
rclavicle 2.41026e-015 -2.38542e-015
rhumerus -32.6304 -8.60988 -75.5949
rradius 62.3342
rwrist -28.7712
rhand -40.132 37.4981
rfingers 7.12502
rthumb -13.095 7.92918
lclavicle 2.41026e-015 -2.38542e-015
lhumerus -37.5997 -7.12014 92.0504
lradius 36.7508
lwrist 36.9043
lhand -19.1682 59.2199
lfingers 7.12502
lthumb 7.1428 89.0793
rfemur 1.86648 13.6411 21.2221
rtibia -6.36111e-015
rfoot -6.72996 -33.602
rtoes 9.29674
lfemur -11.4256 -21.7409 -12.2881
ltibia 16.5677
lfoot -12.1595 13.0765
ltoes -29.5665
498
root -1.89558 17.8208 0.530263 -162.922 78.7356 -170.16
lowerback 0.0130013 0.428064 1.01133
upperback -1.98211 0.651843 1.91932
thorax -2.05036 0.341748 1.38912
lowerneck -16.425 -11.2988 -9.93327
upperneck 32.7437 -16.0404 9.35844
head 16.0869 -6.41496 2.63728
rclavicle 3.28492e-014 -3.97569e-016
rhumerus -33.2854 -8.64084 -75.2527
rradius 62.0812
rwrist -29.186
rhand -40.4202 38.7146
rfingers 7.12502
rthumb -13.3729 9.16379
lclavicle 3.28492e-014 -3.97569e-016
lhumerus -37.4785 -7.07065 92.0134
lradius 37.3319
lwrist 36.9524
lhand -18.8254 58.8246
lfingers 7.12502
lthumb 7.47365 88.6726
rfemur 1.76047 13.638 21.2107
rtibia -1.74931e-014
rfoot -6.76939 -33.6022
rtoes 9.54784
lfemur -11.5566 -21.6936 -12.2201
ltibia 16.5651
lfoot -12.1011 13.0948
ltoes -30.328
499
root -1.90103 17.8232 0.535803 -162.987 78.7241 -170.33
lowerback 0.00714479 0.253328 0.969877
upperback -1.97526 0.418783 1.96412
thorax -2.03669 0.226484 1.46263
lowerneck -16.2363 -11.4391 -10.1165
upperneck 32.664 -16.2935 9.60484
head 16.0928 -6.51984 2.72219
rclavicle 2.16178e-015 1.43125e-014
rhumerus -33.9008 -8.74787 -74.8619
rradius 61.8203
rwrist -29.7199
rhand -40.7614 40.0343
rfingers 7.12502
rthumb -13.7017 10.5054
lclavicle 2.16178e-015 1.43125e-014
lhumerus -37.3091 -7.09196 91.9551
lradius 37.9118
lwrist 37.2114
lhand -19.2747 59.1869
lfingers 7.12502
lthumb 7.04003 89.0499
rfemur 1.64233 13.6206 21.1752
rtibia -6.36111e-015
rfoot -6.75225 -33.6011
rtoes 9.58551
lfemur -11.6897 -21.875 -12.154
ltibia 16.5473
lfoot -12.1348 13.1698
ltoes -30.0274
500
root -1.90473 17.8237 0.540724 -163.157 78.76 -170.567
lowerback -0.00254858 0.0932136 0.891873
upperback -1.90919 0.202795 2.0223
thorax -1.95982 0.120022 1.56995
lowerneck -16.1504 -11.6124 -10.3503
upperneck 32.6311 -16.5902 9.87694
head 16.1637 -6.63961 2.81189
rclavicle -9.46712e-015 -2.90226e-014
rhumerus -34.3446 -9.05501 -74.4331
rradius 61.4519
rwrist -29.965
rhand -40.9512 40.7261
rfingers 7.12502
rthumb -13.8846 11.2096
lclavicle -9.46712e-015 -2.90226e-014
lhumerus -37.0136 -7.06291 91.8787
lradius 38.4343
lwrist 37.4237
lhand -19.3824 59.6866
lfingers 7.12502
lthumb 6.93606 89.553
rfemur 1.56928 13.6436 21.1183
rtibia -1.27222e-014
rfoot -6.82318 -33.5822
rtoes 9.76993
lfemur -11.7604 -22.1743 -12.1351
ltibia 16.5359
lfoot -12.1692 13.3975
ltoes -29.5387
501
root -1.90663 17.8237 0.546133 -163.078 78.8074 -170.525
lowerback -0.0419166 -0.0572132 0.853726
upperback -1.82572 0.000112136 2.10843
thorax -1.84779 0.0198397 1.68299
lowerneck -15.9818 -11.7809 -10.5417
upperneck 32.5369 -16.8604 10.0598
head 16.1653 -6.76248 2.86435
rclavicle 3.15571e-014 0
rhumerus -34.783 -9.52736 -74.0006
rradius 61.0589
rwrist -29.8283
rhand -41.0411 41.16
rfingers 7.12502
rthumb -13.9713 11.6495
lclavicle 3.15571e-014 0
lhumerus -36.6845 -6.95061 91.7528
lradius 38.8719
lwrist 37.6411
lhand -19.1318 59.7275
lfingers 7.12502
lthumb 7.17795 89.5858
rfemur 1.51456 13.6933 21.1179
rtibia -1.59028e-015
rfoot -6.9868 -33.5622
rtoes 10.1661
lfemur -11.8016 -22.3439 -12.0813
ltibia 16.5378
lfoot -12.1877 13.5996
ltoes -29.5015
502
root -1.90804 17.825 0.551635 -162.819 78.8384 -170.317
lowerback -0.0966615 -0.180101 0.87647
upperback -1.77839 -0.164211 2.18405
thorax -1.76456 -0.0619036 1.75008
lowerneck -15.7272 -11.9237 -10.7669
upperneck 32.4039 -17.1099 10.3234
head 16.1415 -6.87443 2.96517
rclavicle 1.36664e-014 1.55052e-014
rhumerus -35.243 -10.168 -73.5275
rradius 60.5406
rwrist -29.6168
rhand -41.5776 42.1163
rfingers 7.12502
rthumb -14.4882 12.6422
lclavicle 1.36664e-014 1.55052e-014
lhumerus -36.3803 -6.78023 91.577
lradius 39.1637
lwrist 37.619
lhand -19.1139 59.2984
lfingers 7.12502
lthumb 7.19524 89.1561
rfemur 1.4318 13.737 21.1469
rtibia 7.95139e-015
rfoot -7.1427 -33.5485
rtoes 10.5983
lfemur -11.8702 -22.3622 -11.9903
ltibia 16.5534
lfoot -12.1949 13.6291
ltoes -29.5468
